<?xml version="1.0" encoding="utf-8"?>
<!-- Generator: Adobe Illustrator 22.0.0, SVG Export Plug-In . SVG Version: 6.00 Build 0)  -->
<svg version="1.1" id="Layer_1" xmlns="http://www.w3.org/2000/svg" xmlns:xlink="http://www.w3.org/1999/xlink" x="0px" y="0px"
	 viewBox="0 0 63 63" style="enable-background:new 0 0 63 63;" xml:space="preserve">
<style type="text/css">
	.st0{opacity:0.85;enable-background:new    ;}
</style>
<title>Asset 10</title>
<circle cx="31.5" cy="16.1" r="5.5"/>
<path d="M47.6,22.3c-10.7,2-21.6,2-32.2,0c-0.9-0.2-1.7,0.4-1.9,1.3c0,0,0,0,0,0c-0.2,0.9,0.4,1.7,1.3,1.9c0,0,0,0,0,0
	c3.6,0.7,7.3,1.1,10.9,1.3c1.4,0.1,2.5,1.4,2.4,2.8c0,0,0,0.1,0,0.1l-0.3,2.8c-0.5,4.3-1.5,8.6-3,12.7l-2,5.3
	c-0.3,0.9,0.1,1.8,1,2.1s1.8-0.1,2.1-1l0,0l0.5-1c1.6-3.4,3.1-6.9,4.5-10.4c0.1-0.4,0.6-0.6,1-0.4c0.2,0.1,0.3,0.2,0.4,0.4
	c1.4,3.5,2.8,7,4.5,10.4l0.5,1.1l0,0c0.3,0.6,0.8,1,1.5,1c0.2,0,0.4,0,0.6-0.1c0.9-0.3,1.3-1.2,1-2.1c0,0,0,0,0,0l-2-5.3
	c-1.5-4.1-2.5-8.3-3-12.7l-0.3-2.8c-0.2-1.4,0.9-2.7,2.3-2.9c0,0,0.1,0,0.1,0c3.6-0.2,7.2-0.7,10.8-1.3c0.8-0.1,1.4-0.8,1.4-1.7
	c0-0.9-0.7-1.7-1.6-1.7C47.8,22.2,47.7,22.3,47.6,22.3z"/>
<path class="st0" d="M31.5,0C14.1,0,0,14.1,0,31.5S14.1,63,31.5,63S63,48.9,63,31.5C63,14.1,48.9,0,31.5,0z M31.5,60
	C15.8,60,3,47.2,3,31.5S15.8,3,31.5,3S60,15.8,60,31.5C60,47.2,47.2,60,31.5,60z"/>
</svg>
