<svg width="48" height="48" viewBox="0 0 48 48" fill="none" xmlns="http://www.w3.org/2000/svg">
<circle cx="24" cy="24" r="24" fill="#474747"/>
<path d="M13.4 35.2001C12.6 35.2001 12 34.6001 12 33.8001V25.5001C12 24.7001 12.6 24.1001 13.4 24.1001H29.4C30.2 24.1001 30.8 24.7001 30.8 25.5001V33.8001C30.8 34.6001 30.2 35.2001 29.4 35.2001H13.4Z" stroke="white" stroke-miterlimit="10" stroke-linecap="round" stroke-linejoin="round"/>
<path fill-rule="evenodd" clip-rule="evenodd" d="M15.3001 22.0001C13.5001 22.0001 12.1001 20.5001 12.1001 18.8001C12.1001 17.0001 13.6001 15.6001 15.3001 15.6001C17.1001 15.6001 18.5001 17.1001 18.5001 18.8001C18.5001 20.5001 17.1001 22.0001 15.3001 22.0001Z" stroke="white" stroke-miterlimit="10" stroke-linecap="round" stroke-linejoin="round"/>
<path fill-rule="evenodd" clip-rule="evenodd" d="M25.2998 22C22.7998 22 20.7998 20 20.7998 17.5C20.7998 15 22.7998 13 25.2998 13C27.7998 13 29.7998 15 29.7998 17.5C29.6998 20 27.6998 22 25.2998 22Z" stroke="white" stroke-miterlimit="10" stroke-linecap="round" stroke-linejoin="round"/>
<path d="M30.8002 30.5001L34.6002 33.7001C35.2002 34.0001 35.9002 33.6001 35.9002 32.9001V26.1001C35.9002 25.4001 35.1002 25.0001 34.5002 25.4001L30.7002 28.7001" stroke="white" stroke-miterlimit="10" stroke-linecap="round" stroke-linejoin="round"/>
</svg>
