<svg id="bc560829-1693-4ad2-970c-3ab14dcbe26b" data-name="Layer 1" xmlns="http://www.w3.org/2000/svg" xmlns:xlink="http://www.w3.org/1999/xlink" width="48" height="48" viewBox="0 0 48 48">
  <defs>
    <style>
      .a532b7b8-abdf-4cab-a8dc-5e8b009a8941, .aa9ab6ee-a96a-4d63-8e4d-0138177d5312 {
        fill: none;
      }

      .ab1ac70c-678a-4b3b-8392-cdc4a434982c {
        fill: #474747;
      }

      .e5c0a974-5863-4d43-9903-fe4752affe4b {
        clip-path: url(#a9a64464-1abf-4e6f-9aaf-fb4e482c554a);
      }

      .a8c289b0-ada1-40f6-94d6-f307b5ad8db7 {
        fill: #fff;
      }

      .adc501d3-4135-43a2-8fd2-4bdcd67ee0ea {
        clip-path: url(#b1a89c91-2b06-432e-9dd0-f5d567260992);
      }

      .a532b7b8-abdf-4cab-a8dc-5e8b009a8941 {
        stroke: #fff;
        stroke-width: 0.5px;
      }
    </style>
    <clipPath id="a9a64464-1abf-4e6f-9aaf-fb4e482c554a" transform="translate(-0.5 -0.6)">
      <rect class="aa9ab6ee-a96a-4d63-8e4d-0138177d5312" x="17.2805" y="11.9172" width="14.5554" height="22.2963"/>
    </clipPath>
    <clipPath id="b1a89c91-2b06-432e-9dd0-f5d567260992" transform="translate(-0.5 -0.6)">
      <circle class="aa9ab6ee-a96a-4d63-8e4d-0138177d5312" cx="24.5" cy="24.4556" r="24"/>
    </clipPath>
  </defs>
  <circle class="ab1ac70c-678a-4b3b-8392-cdc4a434982c" cx="24" cy="24" r="24"/>
  <g class="e5c0a974-5863-4d43-9903-fe4752affe4b">
    <path id="ba6486a4-9374-473d-9018-6f2d8dbfc822" data-name="spark" class="a8c289b0-ada1-40f6-94d6-f307b5ad8db7" d="M29.63,27.583l5.434.225-5.1731-2.15L33.42,23.2354l-4.0484-.6207,3.5109-4.0485-4.7817,2.6315.31-4.2442-3.1173,2.8879L24.293,14.5042l-.9,5.2405-3.0161-2.7912.3171,4.3589L15.7664,18.69l3.5222,3.945-3.92.6005L18.967,25.696l-5.2428,2.2694,5.398-.2991L17.1564,31.067,21.2049,29.83l-1.5024,5.515,3.2162-4.5276,1.4755,3.7359L25.89,30.7723l3.3085,4.4983L27.64,29.8434,31.632,31.067Zm4.2734-.0337L29.5,27.3716l-.6006-1.0458.7738-.5331Zm-4.8919-.1979L26.67,27.2569l.5871,2.04-1.1089-.34L25.683,30.14,24.3942,28.377,23.11,30.1763l-.4835-1.2258-1.0729.3284.5421-1.9928-2.3729.13.704-1.2235-.8165-.56,1.9006-.8209-1.6487-1.8443,1.3495-.207L21.14,21.787l1.941,1.0323.4138-2.42.9.83.8029-.7422.43,2.3121,2.0243-1.1246-.0788,1.08,1.2348.1867-1.5744,1.8263,1.9928.8322-.8682.596ZM32.32,23.4851l-2.89,1.9792L27.57,24.7l1.48-1.7071Zm-.3554-4.1834-2.8361,3.277-1.1246-.171.07-.9649ZM27.9164,17.97l-.2474,3.4659L25.7774,22.48l-.4026-2.1569ZM24.302,15.6828l.8052,4.3251-.713.6567-.8142-.7512ZM20.8675,17.97l2.2463,2.0769.2008.1857L22.9277,22.5l-1.7993-.9581Zm-4.1722,1.4484,4.017,2.1322.063.8524-1.2415.1912ZM16.47,23.4851l3.1488-.4813,1.552,1.7386-1.7566.76Zm-1.5991,4.2081,4.2936-1.8578.7152.49L19.2324,27.45Zm3.1668,2.67,1.5744-2.7237,2.22-.1237-.4993,1.842Zm2.1682,3.9158,1.2258-4.5208.9536-.2924.45,1.1246Zm4.1879-.8547-1.19-3.0094,1.19-1.6823,1.201,1.6351Zm4.2734.7894-2.699-3.68.4228-1.0683.9987.3059ZM26.947,27.4661l2.1839.0877,1.6082,2.8-3.2366-.9851Z" transform="translate(-0.5 -0.6)"/>
  </g>
  <g class="adc501d3-4135-43a2-8fd2-4bdcd67ee0ea">
    <polygon class="a532b7b8-abdf-4cab-a8dc-5e8b009a8941" points="2.341 1.157 17.109 4.899 16.912 42.506 2.341 46.247 2.341 1.157"/>
    <circle class="a532b7b8-abdf-4cab-a8dc-5e8b009a8941" cx="14.352" cy="23.2101" r="1.1814"/>
    <polygon class="a532b7b8-abdf-4cab-a8dc-5e8b009a8941" points="45.659 1.551 31.088 5.292 31.088 42.9 45.659 46.05 45.659 1.551"/>
    <circle class="a532b7b8-abdf-4cab-a8dc-5e8b009a8941" cx="33.648" cy="23.8008" r="1.1814"/>
  </g>
</svg>
