<svg id="be0fd03f-e840-4cbe-a5de-61c5ad846337" data-name="Layer 1" xmlns="http://www.w3.org/2000/svg" xmlns:xlink="http://www.w3.org/1999/xlink" width="48" height="48.1" viewBox="0 0 48 48.1">
  <defs>
    <style>
      .a16227f0-b442-467c-b0ea-f1cb36d0d55e, .af33f971-f6b3-4aff-94aa-a1836ebc524c, .edc4f532-ddd9-4821-9856-f7e26a7d678a {
        fill: none;
      }

      .ad00de47-803d-4e50-8c71-60237ae1b253 {
        fill: #474747;
      }

      .ebb14238-f6a3-44a1-941c-b930bd54286d {
        fill: #fff;
        stroke-width: 0.25px;
      }

      .af33f971-f6b3-4aff-94aa-a1836ebc524c, .ebb14238-f6a3-44a1-941c-b930bd54286d, .edc4f532-ddd9-4821-9856-f7e26a7d678a {
        stroke: #fff;
      }

      .ebb14238-f6a3-44a1-941c-b930bd54286d, .edc4f532-ddd9-4821-9856-f7e26a7d678a {
        stroke-miterlimit: 10;
      }

      .edc4f532-ddd9-4821-9856-f7e26a7d678a {
        stroke-width: 0.35px;
      }

      .bf2dc639-5351-4e93-952e-7073792bf2b7 {
        clip-path: url(#b5a2d30b-bcbb-4fe6-9e35-b0f57dace033);
      }
    </style>
    <clipPath id="b5a2d30b-bcbb-4fe6-9e35-b0f57dace033" transform="translate(-0.5 -0.5)">
      <circle class="a16227f0-b442-467c-b0ea-f1cb36d0d55e" cx="24.5" cy="24.6" r="24"/>
    </clipPath>
  </defs>
  <circle class="ad00de47-803d-4e50-8c71-60237ae1b253" cx="24" cy="24.1" r="24"/>
  <g id="fe5c6d64-5498-4c74-a6dd-4709f00bab35" data-name="Sparkle">
    <path class="ebb14238-f6a3-44a1-941c-b930bd54286d" d="M26.3,18.1h0c-.1,0-.1,0-.2-.1s-.1-.1-.1-.2v-.1h0c0-.7-.2-4-3-4a.2.2,0,0,1,0-.4c2.9,0,3-3.4,3-4h0V9.2c0-.1,0-.1.1-.2a.1875.1875,0,0,1,.3,0,.3491.3491,0,0,1,.1.2v.1h0c0,.7.2,4,3,4a.2.2,0,0,1,0,.4c-2.9,0-3,3.4-3,4h0v.1c0,.1,0,.1-.1.2Zm-2-4.6a3.5512,3.5512,0,0,1,2,2.5,3.3713,3.3713,0,0,1,2-2.5,3.5512,3.5512,0,0,1-2-2.5A3.754,3.754,0,0,1,24.3,13.5Z" transform="translate(-0.5 -0.5)"/>
    <path class="ebb14238-f6a3-44a1-941c-b930bd54286d" d="M20.9,12.6h0a.2151.2151,0,0,1-.2-.2v-.1a2.6092,2.6092,0,0,0-.5-1.4.9843.9843,0,0,0-.8-.3.2.2,0,0,1,0-.4,1.1355,1.1355,0,0,0,.8-.3c.4-.4.4-1.2.5-1.4h0a.3491.3491,0,0,1,.1-.2h.3a.3491.3491,0,0,1,.1.2h0v.1a2.1368,2.1368,0,0,0,.5,1.3.9843.9843,0,0,0,.8.3.2.2,0,0,1,0,.4,1.1355,1.1355,0,0,0-.8.3,2.3787,2.3787,0,0,0-.5,1.4h0q0,.15-.3.3Zm-.6-2.2c.1.1.2.1.3.2.2.2.3.3.3.5a2.1859,2.1859,0,0,1,.3-.5c.1-.1.2-.2.3-.2-.1-.1-.2-.1-.3-.2l-.3-.6a.9984.9984,0,0,1-.4.5C20.5,10.3,20.4,10.3,20.3,10.4Z" transform="translate(-0.5 -0.5)"/>
    <path class="ebb14238-f6a3-44a1-941c-b930bd54286d" d="M23.2,18.8h0a.2151.2151,0,0,1-.2-.2v-.1a1.6894,1.6894,0,0,0-.3-1,.8454.8454,0,0,0-.6-.2.2.2,0,1,1,0-.4,1.4213,1.4213,0,0,0,.6-.2,1.4472,1.4472,0,0,0,.3-1.1.3491.3491,0,0,1,.1-.2h.3a.3491.3491,0,0,1,.1.2h0v.1a1.6894,1.6894,0,0,0,.3,1,.8454.8454,0,0,0,.6.2.2.2,0,0,1,0,.4,1.4213,1.4213,0,0,0-.6.2,1.4472,1.4472,0,0,0-.3,1.1c-.1.1-.1.2-.3.2Zm-.4-1.7c.1,0,.1.1.2.1.1.1.2.2.2.3.1-.1.1-.2.2-.3,0-.1.1-.1.2-.1-.1,0-.1-.1-.2-.1-.1-.1-.2-.2-.2-.3-.1.1-.1.2-.3.4C22.9,17,22.9,17,22.8,17.1Z" transform="translate(-0.5 -0.5)"/>
  </g>
  <path class="edc4f532-ddd9-4821-9856-f7e26a7d678a" d="M30.3,27.1h0c0-.1,0-.1-.1-.2a.0979.0979,0,0,0-.1-.1c-.1-.1-.1-.2-.2-.3l-.3-.3a3.5146,3.5146,0,0,0-.9-.7,6.1171,6.1171,0,0,0-1.2-.5,1.2683,1.2683,0,0,0-.6-.1c-.2,0-.4-.1-.6-.1h-.6c.1-.1.2-.1.4-.2.1-.1.3-.1.4-.2s.3-.1.4-.2.3-.1.4-.2c.3-.1.5-.2.8-.3.1,0,.2-.1.3-.1s.2,0,.2-.1h.3a.0979.0979,0,0,0,.1-.1.1385.1385,0,0,0,0-.2h-.1a.3491.3491,0,0,0-.2-.1c-.1,0-.2-.1-.3-.1s-.2-.1-.4-.1H27a4.2528,4.2528,0,0,0-1.1.2c-.2.1-.4.1-.5.2-.2.1-.3.2-.5.3-.1.1-.3.2-.4.4-.1.1-.2.3-.3.4,0,.1-.1.1-.1.2,0-.1-.1-.1-.1-.2l-.3-.3a2.1774,2.1774,0,0,0-.8-.5c-.1-.1-.3-.1-.5-.2-.2,0-.3-.1-.5-.1h-.8a.3674.3674,0,0,0-.3.1c-.1,0-.2.1-.3.1s-.1.1-.2.1h0l-.1.1c0,.1,0,.2.1.2h.3c.1,0,.1,0,.2.1.1,0,.2.1.3.1.4.2.8.4,1.3.7.1,0,.2.1.3.1h-.3a1.2683,1.2683,0,0,0-.6.1,1.4213,1.4213,0,0,0-.6.2c-.2.1-.4.1-.6.2a2.1859,2.1859,0,0,0-.5.3,5.7163,5.7163,0,0,0-.8.7l-.3.3c-.1.1-.1.2-.2.3a.3491.3491,0,0,1-.1.2v.2c0,.1.1.1.2,0H19a.3491.3491,0,0,1,.2-.1c.1,0,.2-.1.3-.1s.2-.1.3-.2a7.59,7.59,0,0,1,1.8-.6,2.92,2.92,0,0,1,.9-.2c-.1,0-.1.1-.2.1-.2.1-.3.3-.5.4a2.1813,2.1813,0,0,0-.4.5,2.6642,2.6642,0,0,0-.6,1,1.69,1.69,0,0,0-.2.5.9015.9015,0,0,0-.1.5c0,.2-.1.3-.1.4v.6a.0979.0979,0,0,0,.1.1h.2v-.1a.3491.3491,0,0,0,.1-.2,5.9226,5.9226,0,0,0,.4-.6c.2-.2.3-.5.6-.7.1-.1.2-.3.3-.4s.2-.3.3-.4a4.62,4.62,0,0,1,.7-.7,2.6513,2.6513,0,0,1,.6-.5.31.31,0,0,1,.2-.1h0v.2a.9015.9015,0,0,0,.1.5,1.9523,1.9523,0,0,0,.1.7v3.7a12.75,12.75,0,0,1-.1,2,2.7686,2.7686,0,0,1-.1.9c0,.3-.1.6-.1.8s-.1.5-.1.7a4.3311,4.3311,0,0,1-.1.5,1.5769,1.5769,0,0,0-.1.4h0a.9055.9055,0,1,0,1.8.2,1.75,1.75,0,0,1,.1-.5,1.2683,1.2683,0,0,1,.1-.6,1.7018,1.7018,0,0,1,.1-.7v-4c0-.7-.1-1.4-.1-2.1,0-.3-.1-.7-.1-1s-.1-.6-.1-.9-.1-.5-.1-.7a4.3311,4.3311,0,0,0-.1-.5h0c.1,0,.2.1.3.2s.2.1.3.2l.3.3a1.38,1.38,0,0,0,.4.3l.3.3.3.3.6.6.2.2.2.2a.0979.0979,0,0,0,.1.1v.2l.1.1c.1,0,.2,0,.2-.1v-.6a.6012.6012,0,0,0-.1-.4.7581.7581,0,0,0-.2-.4c-.1-.1-.1-.3-.2-.5a5.4956,5.4956,0,0,0-.7-.9l-.4-.4c-.2-.1-.3-.2-.5-.3-.1.5-.2.4-.3.4h.2a3.553,3.553,0,0,1,1,.2c.7.2,1.4.4,1.9.6.1.1.2.1.4.2.1,0,.2.1.3.1a.0979.0979,0,0,1,.1.1h.3C30.3,27.2,30.3,27.2,30.3,27.1Z" transform="translate(-0.5 -0.5)"/>
  <g class="bf2dc639-5351-4e93-952e-7073792bf2b7">
    <g id="b1a604cb-7658-4958-a20f-87b142934d34" data-name="Doors">
      <g>
        <circle class="a16227f0-b442-467c-b0ea-f1cb36d0d55e" cx="24" cy="24" r="24"/>
        <path class="af33f971-f6b3-4aff-94aa-a1836ebc524c" d="M2.8,1.8" transform="translate(-0.5 -0.5)"/>
        <polyline class="af33f971-f6b3-4aff-94aa-a1836ebc524c" points="2.3 1.3 17.1 5 16.9 42.6 2.3 46.3"/>
      </g>
      <g>
        <circle class="a16227f0-b442-467c-b0ea-f1cb36d0d55e" cx="24" cy="24" r="24"/>
        <circle class="af33f971-f6b3-4aff-94aa-a1836ebc524c" cx="14.4" cy="23.3" r="1.2"/>
      </g>
      <g>
        <circle class="a16227f0-b442-467c-b0ea-f1cb36d0d55e" cx="24" cy="24" r="24"/>
        <path class="af33f971-f6b3-4aff-94aa-a1836ebc524c" d="M46.2,2.2" transform="translate(-0.5 -0.5)"/>
        <polyline class="af33f971-f6b3-4aff-94aa-a1836ebc524c" points="45.7 1.7 31.1 5.4 31.1 43 45.7 46.2"/>
      </g>
      <g>
        <circle class="a16227f0-b442-467c-b0ea-f1cb36d0d55e" cx="24" cy="24" r="24"/>
        <circle class="af33f971-f6b3-4aff-94aa-a1836ebc524c" cx="33.6" cy="23.9" r="1.2"/>
      </g>
    </g>
  </g>
</svg>
