<svg id="a9b5ceb4-b79e-442f-8eac-0186b9a6ca9c" data-name="aac6b8c7-ee5a-44f1-87e9-7f29da1f7e0b" xmlns="http://www.w3.org/2000/svg" width="48" height="48" viewBox="0 0 48 48">
  <defs>
    <style>
      .afa84eee-2947-4421-a757-baff18a53f28 {
        fill: #474747;
      }

      .bab2aea5-617b-4b08-86b6-1e91b622db06 {
        fill: none;
        stroke: #fff;
        stroke-miterlimit: 10;
        stroke-width: 0.75px;
      }
    </style>
  </defs>
  <circle class="afa84eee-2947-4421-a757-baff18a53f28" cx="24" cy="24" r="24"/>
  <g>
    <circle class="bab2aea5-617b-4b08-86b6-1e91b622db06" cx="13.5152" cy="20.2669" r="3.5533"/>
    <path class="bab2aea5-617b-4b08-86b6-1e91b622db06" d="M22.2638,18.4584a1.5007,1.5007,0,0,0-1.9006.9915l-.8263,2.5616a4.2737,4.2737,0,0,1-2.6029,2.7269,5.4417,5.4417,0,0,1-1.8179.3305H11.6868a4.1412,4.1412,0,0,0-3.5531,1.9832L4.6218,32.5472a1.5062,1.5062,0,0,0,.4958,2.1071,1.4894,1.4894,0,0,0,.8263.2479A1.5216,1.5216,0,0,0,7.2247,34.2L9.91,29.9442v4.2969a.935.935,0,0,0,.95.95h5.4124a.935.935,0,0,0,.95-.95V27.7545c.2479-.0826.4958-.124.7437-.2066a7.3036,7.3036,0,0,0,4.4621-4.6274l.8264-2.5616A1.534,1.534,0,0,0,22.2638,18.4584Z"/>
    <circle class="bab2aea5-617b-4b08-86b6-1e91b622db06" cx="34.4531" cy="20.2771" r="3.5533"/>
    <path class="bab2aea5-617b-4b08-86b6-1e91b622db06" d="M43.3763,32.5472,39.9058,26.97a4.1931,4.1931,0,0,0-3.5532-1.9832H32.9233a5.4421,5.4421,0,0,1-1.8179-.3305,4.2737,4.2737,0,0,1-2.6029-2.7269l-.8263-2.5616a1.5158,1.5158,0,1,0-2.8921.909l.8263,2.5616a7.3039,7.3039,0,0,0,4.4621,4.6274c.2479.0826.4958.1239.7437.2066v6.4453a.935.935,0,0,0,.95.95h5.4124a.935.935,0,0,0,.95-.95V29.9029l2.6855,4.2556a1.5216,1.5216,0,0,0,1.2808.7024,1.5955,1.5955,0,0,0,.8264-.2479A1.4746,1.4746,0,0,0,43.3763,32.5472Z"/>
    <path class="bab2aea5-617b-4b08-86b6-1e91b622db06" d="M24.9493,13.0873a.9511.9511,0,1,0-1.9005,0v1.6113a.9511.9511,0,1,0,1.9005,0Z"/>
    <path class="bab2aea5-617b-4b08-86b6-1e91b622db06" d="M19.8261,16.062a.9089.9089,0,0,0,.8263.4958,1.1,1.1,0,0,0,.4958-.1239.9962.9962,0,0,0,.3719-1.3222l-.8263-1.4047a.9712.9712,0,0,0-1.694.95Z"/>
    <path class="bab2aea5-617b-4b08-86b6-1e91b622db06" d="M26.85,16.3925a1.099,1.099,0,0,0,.4958.124.9089.9089,0,0,0,.8263-.4958l.785-1.4047a.9594.9594,0,0,0-.3719-1.3222.9269.9269,0,0,0-1.3221.3719L26.478,15.07A.9961.9961,0,0,0,26.85,16.3925Z"/>
  </g>
</svg>
