<svg id="ff0ca2c9-85d9-4332-bc90-c685564db7a2" data-name="aac6b8c7-ee5a-44f1-87e9-7f29da1f7e0b" xmlns="http://www.w3.org/2000/svg" width="48" height="48" viewBox="0 0 48 48">
  <defs>
    <style>
      .ae129063-63b8-47a0-88b3-ea382414cf56 {
        fill: #474747;
      }

      .ad08b1b5-8065-4a11-ae78-ca97dda10cab {
        fill: none;
        stroke: #fff;
        stroke-miterlimit: 10;
        stroke-width: 0.5px;
      }
    </style>
  </defs>
  <circle class="ae129063-63b8-47a0-88b3-ea382414cf56" cx="24" cy="24" r="24"/>
  <g>
    <circle class="ad08b1b5-8065-4a11-ae78-ca97dda10cab" cx="15.1727" cy="12.5189" r="3.3352"/>
    <path class="ad08b1b5-8065-4a11-ae78-ca97dda10cab" d="M22.4181,10.1038a1.2789,1.2789,0,0,0-1.3417,1.1884,8.8336,8.8336,0,0,1-1.0734,3.9486,4.659,4.659,0,0,1-2.6068,1.4184H13.1793a2.7561,2.7561,0,0,0-2.4535,1.5334c-.115.1917-.3067.4217-.4983.69a9.0819,9.0819,0,0,0-1.4184,2.3385c-.23.7667-1.15,3.2968-1.15,3.2968a1.3263,1.3263,0,0,0,.7667,1.6484,1.9739,1.9739,0,0,0,.4217.0767A1.23,1.23,0,0,0,10.0358,25.4c.0383-.115.9584-2.6068,1.1884-3.4118a5.9512,5.9512,0,0,1,.805-1.2651l-.23,4.9836L8.234,37.82a1.558,1.558,0,0,0,1.0351,1.9168,1.9794,1.9794,0,0,0,.4217.0766,1.5521,1.5521,0,0,0,1.4951-1.1117L14.2144,28.39l-.23,9.8522a1.5389,1.5389,0,0,0,1.4951,1.5717,1.5143,1.5143,0,0,0,1.5718-1.495l.3067-12.114.6133-7.0537a7.366,7.366,0,0,0,3.9869-2.3385c1.3417-1.6484,1.61-5.0219,1.61-5.3669A1.2447,1.2447,0,0,0,22.4181,10.1038Z"/>
    <circle class="ad08b1b5-8065-4a11-ae78-ca97dda10cab" cx="32.7303" cy="12.5189" r="3.3352"/>
    <path class="ad08b1b5-8065-4a11-ae78-ca97dda10cab" d="M36.6789,22.0645c.2683.805,1.15,3.2968,1.1884,3.4118a1.3213,1.3213,0,0,0,1.1884.8434,1.3794,1.3794,0,0,0,.4217-.0767,1.2949,1.2949,0,0,0,.7667-1.6484c0-.0383-.92-2.53-1.15-3.2969a8.8811,8.8811,0,0,0-1.4184-2.3384c-.1917-.2684-.3834-.5367-.4984-.69a2.8041,2.8041,0,0,0-2.4534-1.5334H30.5069A4.6587,4.6587,0,0,1,27.9,15.3174a8.8328,8.8328,0,0,1-1.0734-3.9485,1.2674,1.2674,0,1,0-2.53.1533c.0383.3834.3066,3.7186,1.61,5.367a7.46,7.46,0,0,0,3.9869,2.3384l.6517,6.9771L30.8136,38.28a1.4919,1.4919,0,0,0,1.5717,1.4951A1.5144,1.5144,0,0,0,33.88,38.2036l-.23-9.8521,3.0285,10.3122a1.5191,1.5191,0,0,0,1.4951,1.1117,1.377,1.377,0,0,0,.4217-.0767,1.5272,1.5272,0,0,0,1.035-1.9167L36.1039,25.7063l-.23-4.9836A7.1332,7.1332,0,0,1,36.6789,22.0645Z"/>
    <path class="ad08b1b5-8065-4a11-ae78-ca97dda10cab" d="M24.6416,6.5386V4.0852a.69.69,0,1,0-1.38,0V6.5386a.69.69,0,1,0,1.38,0Z"/>
    <path class="ad08b1b5-8065-4a11-ae78-ca97dda10cab" d="M20.6164,8.2254a.5886.5886,0,0,0,.4983.1917.8077.8077,0,0,0,.4984-.1917.6712.6712,0,0,0,0-.9584L19.85,5.5036a.6777.6777,0,1,0-.9584.9584Z"/>
    <path class="ad08b1b5-8065-4a11-ae78-ca97dda10cab" d="M26.7884,8.4171a.8074.8074,0,0,0,.4983-.1917L29.0118,6.5a.6777.6777,0,1,0-.9584-.9584L26.3283,7.267a.6712.6712,0,0,0,0,.9584A.7074.7074,0,0,0,26.7884,8.4171Z"/>
  </g>
</svg>
