<svg width="48" height="48" viewBox="0 0 48 48" fill="none" xmlns="http://www.w3.org/2000/svg">
<circle cx="24" cy="24" r="24" fill="#474747"/>
<path d="M23.8623 22C25.5192 22 26.8623 20.6569 26.8623 19C26.8623 17.3431 25.5192 16 23.8623 16C22.2055 16 20.8623 17.3431 20.8623 19C20.8623 20.6569 22.2055 22 23.8623 22Z" stroke="white" stroke-miterlimit="10"/>
<path d="M18.0625 18.8999C18.0625 23.4999 22.6625 27.9999 23.6625 28.8999C23.7625 28.9999 23.9625 28.9999 24.0625 28.8999C25.1625 27.8999 29.6625 23.4999 29.6625 18.8999C29.6625 15.5999 27.0625 13 23.7625 13C20.6625 13 18.0625 15.6999 18.0625 18.8999Z" stroke="white" stroke-miterlimit="10"/>
<path d="M28.9627 26.5H31.8627C32.1627 26.5 32.3627 26.5999 32.4627 26.8999L35.8627 33.6C36.0627 34 35.7627 34.6 35.2627 34.6H12.6627C12.1627 34.6 11.8626 34.1 12.0626 33.6L15.4627 26.8999C15.5627 26.6999 15.7626 26.5 16.0626 26.5H18.8627C18.8627 26.5 18.9627 26.6 18.8627 26.6C18.4627 27.2 16.1627 30.5 22.2627 30.5H26.9627C26.9627 30.5 31.6627 30.5 30.3627 34.5" stroke="white" stroke-miterlimit="10" stroke-linecap="round"/>
</svg>
