<svg id="f51bbf14-1dde-43c3-9054-798eb0a4dbe3" data-name="Layer 1" xmlns="http://www.w3.org/2000/svg" width="48" height="48" viewBox="0 0 48 48">
  <defs>
    <style>
      .b5319af0-ac6a-4691-8d1d-6bd7c8eeab48 {
        fill: #474747;
      }

      .addfbeae-de85-485f-918e-caf479618831 {
        fill: #fff;
      }
    </style>
  </defs>
  <circle class="b5319af0-ac6a-4691-8d1d-6bd7c8eeab48" cx="24" cy="24" r="24"/>
  <g>
    <path class="addfbeae-de85-485f-918e-caf479618831" d="M23.4385,16.0675a3.7314,3.7314,0,1,0-3.7313,3.7313A3.7357,3.7357,0,0,0,23.4385,16.0675Zm-6.4719,0a2.7406,2.7406,0,1,1,2.7406,2.7406A2.7437,2.7437,0,0,1,16.9666,16.0675Z" transform="translate(-0.5 -0.6)"/>
    <path class="addfbeae-de85-485f-918e-caf479618831" d="M21.0311,39.2922a2.063,2.063,0,0,0,2.0606-2.0607V24.95h3.2974V38.4a.4954.4954,0,0,0,.9907,0V24.934a3.3874,3.3874,0,0,0,3.0774-3.3684v-.9451H27.38V17.27c1.1357-.97,2.1987-.5439,3.7987.2235a6.8127,6.8127,0,0,0,2.83.8857,3.1344,3.1344,0,0,0,2.2354-.9748.4955.4955,0,0,0,.1522-.3577V11.04a.4956.4956,0,0,0-.8385-.3577c-1.1944,1.1459-2.28.7127-3.9512-.0891-1.5541-.7454-3.3152-1.59-5.0658.0891a.4955.4955,0,0,0-.1522.3577v9.58H18.4519a3.8713,3.8713,0,0,0-3.867,3.867V30.042a2.0641,2.0641,0,0,0,1.737,2.0353v5.1536a2.0629,2.0629,0,0,0,2.0607,2.0606h2.6485ZM27.38,11.2593c1.136-.97,2.1987-.54,3.7987.2272,1.3061.6265,2.7584,1.323,4.2273.5327v4.8082c-1.1357.97-2.1987.5406-3.7987-.2272a6.8127,6.8127,0,0,0-2.83-.8857,2.8955,2.8955,0,0,0-1.3969.3527V11.2593ZM17.3126,37.2312V31.112h-.667a1.071,1.071,0,0,1-1.07-1.07V24.4875a2.8794,2.8794,0,0,1,2.8763-2.8763H29.4662a2.396,2.396,0,0,1-2.3929,2.3476H22.101V37.2312a1.071,1.071,0,0,1-1.07,1.07H18.3826A1.0709,1.0709,0,0,1,17.3126,37.2312Z" transform="translate(-0.5 -0.6)"/>
  </g>
</svg>
