<svg width="90" height="30" viewBox="0 0 90 30" fill="none" xmlns="http://www.w3.org/2000/svg">
<path d="M69.5534 29.0179C63.4819 28.8393 59.7319 24.0179 59.7319 19.1071V0.982147H63.3926L63.5712 18.75C63.5712 25.2679 69.5534 25.625 69.8212 25.625C73.4819 25.625 76.3391 22.7679 76.2498 18.9286C76.1605 15.4464 73.4819 12.5893 69.9105 12.5893C67.9462 12.5893 66.6962 12.7679 65.2676 14.0179L64.7319 14.375V10.625L66.1605 10C67.7676 9.375 68.8391 9.19643 70.5355 9.19643C75.3569 9.19643 80.2676 13.9286 79.9998 19.375C79.7319 24.7322 75.5355 29.1964 69.5534 29.0179Z" fill="white"/>
<path d="M84.0177 5.17857C84.1963 2.23215 88.5713 2.32143 88.482 5.17857C88.482 8.30357 83.8391 7.85715 84.0177 5.17857ZM84.5534 28.75V9.46429H88.3927V28.75H84.5534Z" fill="white"/>
<path d="M13.125 28.5715C6.07144 28.5715 0.625013 24.1072 0.803584 18.5715C0.982156 12.9465 6.51787 8.66074 13.4822 8.75003C20.4464 8.83931 25.8036 13.2143 25.7143 18.8393C25.625 24.5536 20.2679 28.6607 13.125 28.5715ZM20 18.8393C20.0893 15.8036 17.0536 13.3929 13.3036 13.3929C9.55359 13.3929 6.51787 15.8036 6.60716 18.8393C6.60716 21.7857 9.37501 24.0179 13.125 24.1072C16.9643 24.1072 19.9107 21.875 20 18.8393Z" fill="white"/>
<path d="M22.1431 18.75C22.1431 22.7679 18.2145 25.9822 13.3931 25.9822C8.57164 25.9822 4.64307 22.7679 4.64307 18.75C4.64307 14.7322 8.57164 11.5179 13.3931 11.5179C18.2145 11.5179 22.1431 14.8215 22.1431 18.75Z" fill="#191919"/>
<path d="M32.9463 9.37502V11.7857C33.3927 10.8929 34.3749 10.0893 35.8034 9.4643C36.5177 9.10716 37.3213 8.92859 38.2141 8.92859C40.7141 8.92859 42.5891 10.0893 43.8391 12.3214C45.1784 10.0893 47.1427 8.92859 49.8213 8.92859C54.1963 8.92859 56.3392 11.5179 56.3392 16.7857V28.3929H52.5892V17.5C52.5892 15.8036 52.4106 14.5536 51.9642 13.8393C51.3392 12.6786 50.357 12.1429 48.8392 12.1429C46.0713 12.1429 44.732 14.1072 44.732 18.125V28.3929H40.982V18.2143C40.982 16.4286 40.8034 15 40.357 14.1072C39.732 12.7679 38.6606 12.0536 37.0534 12.0536C34.2856 12.0536 32.9463 14.1964 32.9463 18.3929V28.3036H29.1963V9.37502H32.9463Z" fill="white"/>
</svg>
