<svg width="48" height="48" viewBox="0 0 48 48" fill="none" xmlns="http://www.w3.org/2000/svg">
<circle cx="24" cy="24" r="24" fill="#474747"/>
<path d="M31.8 34.4C31.8 35.3 31.1 36 30.2 36H18.6C17.7 36 17 35.3 17 34.4V13.6C17 12.7 17.7 12 18.6 12H30.2C31.1 12 31.8 12.7 31.8 13.6V34.4Z" stroke="white" stroke-miterlimit="10" stroke-linecap="round" stroke-linejoin="round"/>
<path d="M24.8999 32.7C24.8999 33 24.6999 33.2 24.3999 33.2C24.0999 33.2 23.8999 33 23.8999 32.7C23.8999 32.4 24.0999 32.2 24.3999 32.2C24.6999 32.2 24.8999 32.4 24.8999 32.7Z" stroke="white" stroke-miterlimit="10" stroke-linecap="round" stroke-linejoin="round"/>
<path d="M21.3999 15.1H27.3999" stroke="white" stroke-miterlimit="10" stroke-linecap="round" stroke-linejoin="round"/>
</svg>
