<svg id="f4a6dcd7-98a8-44e8-b392-a36ce53cc4ce" data-name="Layer 1" xmlns="http://www.w3.org/2000/svg" width="135" height="135" viewBox="0 0 135 135">
  <defs>
    <style>
      .ba28856b-a837-4ebf-8ad7-155520bad928 {
        fill: #474747;
      }

      .ec7dce3e-ace7-4799-9d46-48dd07339311 {
        fill: #fff;
      }
    </style>
  </defs>
  <g id="acd032d1-ed62-4a13-b1a9-605539c4c57c" data-name="Circle">
    <circle class="ba28856b-a837-4ebf-8ad7-155520bad928" cx="67.5" cy="67.5" r="67.5"/>
  </g>
  <g>
    <rect class="ba28856b-a837-4ebf-8ad7-155520bad928" x="59.0918" y="26.0399" width="36.7125" height="79.7164"/>
    <g id="b101195b-aca1-492f-b5b0-29dcc95bc79e" data-name="Phone">
      <path class="ec7dce3e-ace7-4799-9d46-48dd07339311" d="M96.5043,18.9563h-32a6.8093,6.8093,0,0,0-6.9,6.7v76.4a7.0467,7.0467,0,0,0,7.2,6.9h31.4a7.0467,7.0467,0,0,0,7.2-6.9v-76.4A6.685,6.685,0,0,0,96.5043,18.9563Zm4.1,83.2a4.1651,4.1651,0,0,1-4.3,4.1h-31.6a4.1651,4.1651,0,0,1-4.3-4.1v-76.3a4.14,4.14,0,0,1,4.2-4.1h4a.6338.6338,0,0,1,.6.5l.1.6a2.1052,2.1052,0,0,0,2.2,1.9h18.2a2.1738,2.1738,0,0,0,2.2-1.9l.1-.6a.56.56,0,0,1,.6-.5h4a4.14,4.14,0,0,1,4.2,4.1v76.3Z" transform="translate(-0.5 -0.5)"/>
    </g>
  </g>
  <g>
    <rect class="ba28856b-a837-4ebf-8ad7-155520bad928" x="41.6842" y="68.7742" width="25.0964" height="8.8489"/>
    <rect class="ba28856b-a837-4ebf-8ad7-155520bad928" x="28.1481" y="76.1763" width="52.8538" height="29.8072"/>
    <g id="a1c06597-ca97-488f-95f7-737101c976f5" data-name="camera">
      <path class="ec7dce3e-ace7-4799-9d46-48dd07339311" d="M44.537,66.3293a1.6732,1.6732,0,0,0-1.3332.915L40.302,73.0217H29.636a5.0465,5.0465,0,0,0-5.0192,5.0193V104.81A5.0465,5.0465,0,0,0,29.636,109.83H79.8288A5.0465,5.0465,0,0,0,84.848,104.81V78.041a5.0465,5.0465,0,0,0-5.0192-5.0193H69.1628L66.261,67.2443a1.6732,1.6732,0,0,0-1.49-.915H44.6939Q44.6154,66.3257,44.537,66.3293Zm1.1764,3.3462h18.038l2.8756,5.7513a1.6735,1.6735,0,0,0,1.49.9411H79.8288a1.6332,1.6332,0,0,1,1.6731,1.6731V104.81a1.6331,1.6331,0,0,1-1.6731,1.6731H29.636a1.6331,1.6331,0,0,1-1.6731-1.6731V78.041a1.6331,1.6331,0,0,1,1.6731-1.6731H41.3477a1.6735,1.6735,0,0,0,1.49-.9411Zm9.019,8.3655A12.5482,12.5482,0,1,0,67.2806,90.5892,12.5736,12.5736,0,0,0,54.7324,78.041Zm0,3.3462a9.202,9.202,0,1,1-9.202,9.202A9.1768,9.1768,0,0,1,54.7324,81.3872Z" transform="translate(-0.5 -0.5)"/>
    </g>
  </g>
</svg>
