<svg id="b2a1e5bf-21e4-4e20-ac43-64cf147501f6" data-name="Layer 1" xmlns="http://www.w3.org/2000/svg" width="135" height="135" viewBox="0 0 135 135">
  <defs>
    <style>
      .a20a76a9-1085-40e2-8116-7cd2987b1c92 {
        fill: #474747;
      }

      .b69c1058-cffa-4e9a-994a-eb744ee7b667 {
        fill: none;
        stroke: #fff;
        stroke-miterlimit: 10;
        stroke-width: 3px;
      }

      .adfb2d87-4c6b-416f-add4-39ee95c2227c {
        fill: #fff;
      }
    </style>
  </defs>
  <g id="fa3d6ef5-b98d-470f-b70c-f53695d122bf" data-name="Circle">
    <circle class="a20a76a9-1085-40e2-8116-7cd2987b1c92" cx="67.5" cy="67.5" r="67.5"/>
  </g>
  <g id="f46d6c28-115f-4a2e-81bc-d62b76269392" data-name="person">
    <path class="b69c1058-cffa-4e9a-994a-eb744ee7b667" d="M103.48,65.7965H93.2125a23.0171,23.0171,0,0,1-29.5962,0H53.3506a7.72,7.72,0,0,0-7.6986,7.6978V89.7074h65.5256V73.495A7.7226,7.7226,0,0,0,103.48,65.7965Z" transform="translate(-0.5 -0.5)"/>
    <path class="b69c1058-cffa-4e9a-994a-eb744ee7b667" d="M78.4125,18.4808c-11.2644,0-20.3973,9.6769-20.3973,23.0676s9.1329,24.2481,20.3973,24.2481c11.2682,0,20.4-10.8568,20.4-24.2481S89.6807,18.4808,78.4125,18.4808Z" transform="translate(-0.5 -0.5)"/>
  </g>
  <g>
    <rect class="a20a76a9-1085-40e2-8116-7cd2987b1c92" x="41.3416" y="65.4031" width="25.0964" height="8.8489"/>
    <rect class="a20a76a9-1085-40e2-8116-7cd2987b1c92" x="27.8055" y="72.8051" width="52.8538" height="29.8072"/>
    <g id="f92caaec-c920-40cf-bc9f-a3cb75aed56f" data-name="camera">
      <path class="adfb2d87-4c6b-416f-add4-39ee95c2227c" d="M44.1944,62.9582a1.6731,1.6731,0,0,0-1.3332.915l-2.9018,5.7773H29.2935A5.0465,5.0465,0,0,0,24.2742,74.67v26.77a5.0465,5.0465,0,0,0,5.0193,5.0192H79.4862a5.0465,5.0465,0,0,0,5.0193-5.0192V74.67a5.0466,5.0466,0,0,0-5.0193-5.0193H68.82l-2.9017-5.7773a1.6733,1.6733,0,0,0-1.49-.915H44.3513Q44.2729,62.9545,44.1944,62.9582Zm1.1764,3.3462h18.038l2.8757,5.7512a1.673,1.673,0,0,0,1.49.9411H79.4862A1.6332,1.6332,0,0,1,81.1593,74.67v26.77a1.6332,1.6332,0,0,1-1.6731,1.6731H29.2935a1.6331,1.6331,0,0,1-1.6731-1.6731V74.67a1.6331,1.6331,0,0,1,1.6731-1.6731H41.0051a1.6733,1.6733,0,0,0,1.49-.9411ZM54.39,74.67A12.5482,12.5482,0,1,0,66.938,87.218,12.5737,12.5737,0,0,0,54.39,74.67Zm0,3.3462a9.202,9.202,0,1,1-9.202,9.202A9.1767,9.1767,0,0,1,54.39,78.016Z" transform="translate(-0.5 -0.5)"/>
    </g>
  </g>
</svg>
