<svg width="48" height="48" viewBox="0 0 48 48" fill="none" xmlns="http://www.w3.org/2000/svg">
<circle cx="24" cy="24" r="24" fill="#474747"/>
<path d="M15.3 22.1104C16 22.1104 16.5 22.6104 16.5 23.3104V32.8104C16.5 33.5104 16 34.0103 15.3 34.0103H13.2C12.5 34.0103 12 33.5104 12 32.8104V23.3104C12 22.6104 12.5 22.1104 13.2 22.1104H15.3Z" stroke="white" stroke-miterlimit="10" stroke-linecap="round" stroke-linejoin="round"/>
<path d="M35.7 23.9104C36.2 22.6104 35.8 22.2104 35.1 21.7104C34.6 21.4104 34 21.2104 33.2 21.2104H28.8C28.3 21.2104 27.9 20.7104 28 20.2104C28.3 19.1104 28.6 17.3104 28.5 15.8104C28.3 13.5104 27.2 12.9104 26.4 13.0104C26.1 13.0104 25.9 13.3104 25.8 13.6104C25.5 16.2104 24.3 18.8104 22.4 20.7104C20.4 22.7104 16.5 23.1104 16.5 23.1104L16.6 33.2104C16.6 33.2104 18.8 33.2104 20.2 33.2104C22.2 33.2104 24.1 35.0104 26.7 35.0104H27.2C28.1 35.0104 29.9 34.7104 31.4 34.2104C32.9 33.7104 34 32.4104 34.3 30.9104L35.7 23.9104Z" stroke="white" stroke-miterlimit="10" stroke-linecap="round" stroke-linejoin="round"/>
</svg>
