<svg id="b134f322-5d6a-47fb-ab64-4b660378de8b" data-name="Layer 1" xmlns="http://www.w3.org/2000/svg" xmlns:xlink="http://www.w3.org/1999/xlink" width="135" height="135" viewBox="0 0 135 135">
  <defs>
    <style>
      .a4e18072-090b-4015-9ef8-04dc6e8e5a85 {
        fill: none;
      }

      .ac0b62a3-37ad-4947-924c-fbcd71e0864b {
        fill: #474747;
      }

      .f2746b9a-dd06-4212-8092-47ff9d30e2aa {
        fill: #fff;
      }

      .a7af0f37-fa8a-448b-ab0b-52d74dae2ef9 {
        clip-path: url(#b251bd81-8082-4f89-913b-ad2f3a0b7706);
      }
    </style>
    <clipPath id="b251bd81-8082-4f89-913b-ad2f3a0b7706" transform="translate(-0.5 -0.5)">
      <rect class="a4e18072-090b-4015-9ef8-04dc6e8e5a85" x="47.9611" y="30.0151" width="40.0778" height="77.509"/>
    </clipPath>
  </defs>
  <g id="afe6bd38-36d9-4c27-b67e-456e50fd1877" data-name="Circle">
    <circle class="ac0b62a3-37ad-4947-924c-fbcd71e0864b" cx="67.5" cy="67.5" r="67.5"/>
  </g>
  <g id="e4a3153b-1901-4086-b174-9b09e4cd00dc" data-name="Phone">
    <path class="f2746b9a-dd06-4212-8092-47ff9d30e2aa" d="M84.0158,23.0151H51.9842a6.8143,6.8143,0,0,0-6.9479,6.6721v76.3571a7.0884,7.0884,0,0,0,7.2274,6.9406H83.736a7.0885,7.0885,0,0,0,7.2277-6.9406V29.6872A6.8143,6.8143,0,0,0,84.0158,23.0151Zm4.1184,83.1378a4.1889,4.1889,0,0,1-4.2711,4.1014H52.1369a4.1889,4.1889,0,0,1-4.2711-4.1014V29.8585A4.1654,4.1654,0,0,1,52.113,25.78h4.0141a.5476.5476,0,0,1,.5533.4832l.0632.6367a2.1494,2.1494,0,0,0,2.1715,1.8962h18.17A2.15,2.15,0,0,0,79.2564,26.9l.0632-.6367a.5476.5476,0,0,1,.5533-.4832H83.887a4.1654,4.1654,0,0,1,4.2472,4.0786Z" transform="translate(-0.5 -0.5)"/>
  </g>
  <g class="a7af0f37-fa8a-448b-ab0b-52d74dae2ef9">
    <path id="b79561b6-c601-4cc0-a5b9-710a285e2e86" data-name="Room" class="f2746b9a-dd06-4212-8092-47ff9d30e2aa" d="M78.8433,54.0211V73.2034l4.1811,4.1811V64.3513a.8362.8362,0,0,1,1.3222-.68L90.2,67.852a.836.836,0,0,1,.35.68V84.9105l4.7724,4.7724A.8362.8362,0,1,1,94.14,90.8655L77.6607,74.386H58.284l-16.4795,16.48a.8362.8362,0,1,1-1.1826-1.1826l4.7724-4.7724V68.5324a.836.836,0,0,1,.35-.68l5.8536-4.1812a.8362.8362,0,0,1,1.3222.68V77.3845l4.1812-4.1811V54.0211L40.87,46.717a.8362.8362,0,0,1,.6863-1.5252l16.5608,7.4524h19.71l16.5608-7.4524a.8362.8362,0,1,1,.6863,1.5252ZM72.99,72.7135h4.1811V54.3166H58.7739V72.7135H62.955V61.0064a.8362.8362,0,0,1,.8362-.8362h8.3623a.8362.8362,0,0,1,.8362.8362ZM64.6275,61.8426V72.7135h6.69V61.8426Zm20.0693,4.1336V79.0569l4.1811,4.1811V68.9627Zm-33.4489,0-4.1811,2.9865V83.238l4.1811-4.1811Z" transform="translate(-0.5 -0.5)"/>
  </g>
</svg>
